# xmcd
#
# Track frame offsets:
#	150
#	30131
#	67572
#	79558
#	100219
#	161104
#	182580
#	211317
#	251993
#	289456
#	311622
#
# Disc length: 4477 seconds
#
# Revision: 1
# Processed by: cddbd v1.5.2PL0 Copyright (c) Steve Scherf et al.
# Submitted via: audiograbber 1.83.01
#
DISCID=8d117b0b
DTITLE=Grateful Dead - 79-04-22 Spartan Stadium, San Jose CA
DYEAR=1900
DGENRE=
TTITLE0=Jack Straw
TTITLE1=Tennessee Jed
TTITLE2=Mama Tried
TTITLE3=Mexicali Blues
TTITLE4=Sugaree
TTITLE5=New Minglewood Blues
TTITLE6=Brown-Eyed Women
TTITLE7=Looks Like Rain
TTITLE8=Stagger Lee
TTITLE9=Passenger
TTITLE10=Deal
EXTD=
EXTT0=
EXTT1=
EXTT2=
EXTT3=
EXTT4=
EXTT5=
EXTT6=
EXTT7=
EXTT8=
EXTT9=
EXTT10=
PLAYORDER=
